<svg xmlns="http://www.w3.org/2000/svg" viewBox="0 0 500 500" width="500" height="500">
  <!-- Outer glowing rings -->
  <circle cx="250" cy="250" r="230" fill="none" stroke="currentColor" stroke-width="1" stroke-dasharray="4 8" opacity="0.3"/>
  <circle cx="250" cy="250" r="215" fill="none" stroke="currentColor" stroke-width="0.5" opacity="0.2"/>
  <circle cx="250" cy="250" r="160" fill="none" stroke="currentColor" stroke-width="1.5" opacity="0.4"/>
  <circle cx="250" cy="250" r="100" fill="none" stroke="currentColor" stroke-width="0.5" stroke-dasharray="2 4" opacity="0.3"/>
  
  <!-- Radiating spokes dividing into 12 houses -->
  <g stroke="currentColor" stroke-width="0.5" opacity="0.3">
    <line x1="250" y1="90" x2="250" y2="215" />
    <line x1="250" y1="285" x2="250" y2="410" />
    <line x1="90" y1="250" x2="215" y2="250" />
    <line x1="285" y1="250" x2="410" y2="250" />
    <!-- Diagonal Spokes -->
    <line x1="137" y1="137" x2="225" y2="225" />
    <line x1="363" y1="363" x2="275" y2="275" />
    <line x1="137" y1="363" x2="225" y2="275" />
    <line x1="363" y1="137" x2="275" y2="225" />
    <!-- 30 degree offsets -->
    <line x1="170" y1="111" x2="233" y2="219" />
    <line x1="330" y1="389" x2="267" y2="281" />
    <line x1="111" y1="170" x2="219" y2="233" />
    <line x1="389" y1="330" x2="281" y2="267" />
    <line x1="111" y1="330" x2="219" y2="267" />
    <line x1="389" y1="170" x2="281" y2="233" />
    <line x1="170" y1="389" x2="233" y2="281" />
    <line x1="330" y1="111" x2="267" y2="219" />
  </g>

  <!-- Star nodes -->
  <g fill="currentColor" opacity="0.6">
    <circle cx="250" cy="20" r="2"/>
    <circle cx="250" cy="480" r="2"/>
    <circle cx="20" cy="250" r="2"/>
    <circle cx="480" cy="250" r="2"/>
    <circle cx="87" cy="87" r="1.5"/>
    <circle cx="413" cy="413" r="1.5"/>
    <circle cx="87" cy="413" r="1.5"/>
    <circle cx="413" cy="87" r="1.5"/>
  </g>

  <!-- Inner sacred geometry -->
  <path d="M 250 100 L 356 306 L 144 306 Z" fill="none" stroke="currentColor" stroke-width="0.5" opacity="0.4"/>
  <path d="M 250 400 L 144 194 L 356 194 Z" fill="none" stroke="currentColor" stroke-width="0.5" opacity="0.4"/>
</svg>
